# File created by Blade
# Date/Time:  Tue Jan 27 18:09:10 2015
# Frame Rate: 120.000 fps
#------------------------------------------------------
:FULLY-SPECIFIED
:DEGREES
2567
root -1.382421 31.824020 -6.490482 6.110157 8.133882 3.179795
Spine -6.317548 -10.966176 -4.270566
Head 0.096055 -52.377245 8.064876
LeftShoulder -12.387307 16.582102 4.005070
LeftArm 29.241443 43.873760 -63.240191
LeftForeArm -2.457586 -0.000000 14.998507
LeftHand -10.996925 -0.000000 -5.538908
LeftHandThumb1 -26.253704 0.000000 33.147579
RightShoulder -5.563497 11.073782 -31.086155
RightArm 13.390253 37.171366 37.922825
RightForeArm 18.961756 -0.000000 95.026234
RightHand -10.598951 -0.000000 9.464874
RightHandThumb1 -24.326973 -0.000000 -32.862282
LeftUpLeg -1.979513 -1.284631 -0.915978
LeftLeg 1.493654 -0.000000 -0.000000
LeftFoot -18.296591 15.820176 -24.680395
LeftToeBase 8.751675 -0.000000 -0.000000
RightUpLeg 1.128511 -4.471542 -3.611012
RightLeg -2.962002 -0.000000 0.000000
RightFoot -15.902716 -14.326313 10.206990
RightToeBase 5.128648 -0.000000 -0.000000
2568
root -1.383988 31.824726 -6.487936 6.119577 8.181659 3.185621
Spine -6.314336 -10.961116 -4.281880
Head 0.240465 -52.466898 8.024510
LeftShoulder -12.363710 16.564543 3.981450
LeftArm 29.294541 43.812376 -63.189013
LeftForeArm -2.486535 -0.000000 15.083371
LeftHand -10.982840 -0.000000 -5.302260
LeftHandThumb1 -26.253704 0.000000 33.147579
RightShoulder -5.598420 11.191674 -31.066036
RightArm 13.541559 39.259418 38.847846
RightForeArm 18.870610 -0.000000 95.282731
RightHand -10.652764 0.000000 8.959205
RightHandThumb1 -24.326973 -0.000000 -32.862282
LeftUpLeg -1.990488 -1.310198 -0.912571
LeftLeg 1.496181 -0.000000 -0.000000
LeftFoot -18.270245 15.803701 -24.665818
LeftToeBase 8.721097 -0.000000 -0.000000
RightUpLeg 1.130726 -4.481589 -3.607226
RightLeg -2.958103 -0.000000 0.000000
RightFoot -15.914377 -14.371594 10.227701
RightToeBase 5.101884 -0.000000 -0.000000
2569
root -1.386031 31.824775 -6.486117 6.131682 8.229600 3.186525
Spine -6.306074 -10.953384 -4.294289
Head 0.379556 -52.586081 7.997335
LeftShoulder -12.341704 16.534175 3.972343
LeftArm 29.321309 43.733989 -63.179641
LeftForeArm -2.520938 -0.000000 15.176337
LeftHand -11.011866 -0.000000 -5.214043
LeftHandThumb1 -26.253704 0.000000 33.147579
RightShoulder -5.569425 11.325228 -31.054918
RightArm 13.605363 41.433435 39.754325
RightForeArm 19.112411 -0.000000 95.536875
RightHand -10.429647 -0.000000 8.558089
RightHandThumb1 -24.326973 -0.000000 -32.862282
LeftUpLeg -2.003905 -1.333628 -0.903731
LeftLeg 1.493469 -0.000000 -0.000000
LeftFoot -18.252956 15.775140 -24.668299
LeftToeBase 8.769295 -0.000000 -0.000000
RightUpLeg 1.129663 -4.502850 -3.599048
RightLeg -2.954645 -0.000000 0.000000
RightFoot -15.929913 -14.388255 10.237530
RightToeBase 5.136286 -0.000000 -0.000000
2570
root -1.388794 31.825005 -6.483605 6.145063 8.276736 3.187909
Spine -6.306667 -10.940123 -4.301287
Head 0.568996 -52.740690 7.880285
LeftShoulder -12.309308 16.511114 3.953622
LeftArm 29.351767 43.666849 -63.143970
LeftForeArm -2.541656 -0.000000 15.286261
LeftHand -11.076312 -0.000000 -5.176461
LeftHandThumb1 -26.253704 0.000000 33.147579
RightShoulder -5.618736 11.598521 -31.062899
RightArm 13.761042 43.431157 40.734397
RightForeArm 19.234268 0.000000 95.792794
RightHand -10.430862 -0.000000 8.019222
RightHandThumb1 -24.326973 -0.000000 -32.862282
LeftUpLeg -2.017497 -1.351645 -0.892671
LeftLeg 1.492797 -0.000000 -0.000000
LeftFoot -18.234292 15.748658 -24.655527
LeftToeBase 8.755231 -0.000000 -0.000000
RightUpLeg 1.126059 -4.539398 -3.587536
RightLeg -2.953052 -0.000000 0.000000
RightFoot -15.935664 -14.408680 10.230629
RightToeBase 5.100186 -0.000000 -0.000000
